<?xml version="1.0" standalone="no"?>
<!DOCTYPE svg PUBLIC "-//W3C//DTD SVG 20010904//EN"
 "http://www.w3.org/TR/2001/REC-SVG-20010904/DTD/svg10.dtd">
<svg version="1.0" xmlns="http://www.w3.org/2000/svg"
 width="192.000000pt" height="192.000000pt" viewBox="0 0 192.000000 192.000000"
 preserveAspectRatio="xMidYMid meet">
<metadata>
Created by potrace 1.14, written by Peter Selinger 2001-2017
</metadata>
<g transform="translate(0.000000,192.000000) scale(0.100000,-0.100000)"
fill="#000000" stroke="none">
<path d="M825 1451 c-179 -51 -325 -200 -364 -371 -39 -167 19 -360 144 -485
272 -273 750 -140 850 236 71 266 -109 567 -375 628 -67 16 -187 12 -255 -8z
m308 -34 c65 -39 70 -47 55 -101 l-12 -46 -48 0 c-26 0 -69 -5 -97 -11 -49
-10 -51 -9 -116 30 -37 22 -72 42 -77 43 -7 3 -3 22 9 49 25 57 58 70 166 65
60 -3 87 -10 120 -29z m-302 -43 c-14 -36 -28 -51 -67 -74 -27 -15 -65 -44
-84 -63 -29 -28 -45 -35 -87 -39 -29 -3 -53 -1 -53 4 0 66 192 218 276 218
l32 0 -17 -46z m394 -2 c-3 -3 -11 0 -18 7 -9 10 -8 11 6 5 10 -3 15 -9 12
-12z m-2 -173 c74 -84 83 -107 68 -172 -6 -30 -22 -74 -34 -98 -24 -48 -34
-52 -151 -63 l-61 -5 -69 86 c-38 47 -69 92 -69 99 0 7 14 51 32 98 31 79 36
85 70 94 20 6 66 10 103 11 l66 1 45 -51z m-579 -51 c4 -24 15 -61 24 -83 18
-39 18 -40 -9 -110 -15 -38 -31 -83 -36 -100 -8 -27 -13 -30 -48 -30 -40 0
-40 1 -74 70 -33 68 -33 72 -23 133 19 112 58 162 128 162 30 0 32 -3 38 -42z
m796 -89 c29 -133 -8 -296 -73 -319 -49 -16 -77 -13 -77 10 0 11 -9 43 -20 72
l-20 52 24 61 c14 33 28 78 32 100 8 47 17 55 67 55 34 0 37 2 37 28 1 39 15
11 30 -59z m-473 -119 l73 -89 -31 -81 c-19 -50 -39 -85 -52 -92 -11 -6 -59
-13 -106 -15 -102 -6 -116 2 -179 97 -39 57 -39 60 -30 107 6 26 21 71 33 100
26 57 26 57 165 61 l55 2 72 -90z m-432 -180 c8 -30 12 -57 9 -59 -11 -11 -74
170 -73 209 0 25 50 -90 64 -150z m833 -71 c-30 -54 -114 -130 -180 -163 -56
-28 -103 -35 -94 -13 2 6 10 28 16 48 9 26 23 41 56 59 25 13 64 40 87 61 39
34 62 43 120 48 17 1 16 -2 -5 -40z m-342 -54 c32 -19 64 -35 71 -35 19 0 16
-23 -10 -61 -17 -25 -36 -38 -77 -51 -97 -30 -176 -19 -242 34 -43 33 -45 43
-21 93 17 35 17 35 87 36 57 1 124 10 132 18 1 0 28 -15 60 -34z m-295 -101
c11 -14 4 -12 -29 6 -58 32 -80 60 -26 32 22 -11 47 -28 55 -38z"/>
</g>
</svg>
